<?xml version="1.0" encoding="utf-8" standalone="no"?>
<!DOCTYPE svg PUBLIC "-//W3C//DTD SVG 1.1//EN"
  "http://www.w3.org/Graphics/SVG/1.1/DTD/svg11.dtd">
<svg xmlns:xlink="http://www.w3.org/1999/xlink" width="720pt" height="138.337079pt" viewBox="0 0 720 138.337079" xmlns="http://www.w3.org/2000/svg" version="1.1">
 <metadata>
  <rdf:RDF xmlns:dc="http://purl.org/dc/elements/1.1/" xmlns:cc="http://creativecommons.org/ns#" xmlns:rdf="http://www.w3.org/1999/02/22-rdf-syntax-ns#">
   <cc:Work>
    <dc:type rdf:resource="http://purl.org/dc/dcmitype/StillImage"/>
    <dc:date>2026-07-17T09:37:42.142524</dc:date>
    <dc:format>image/svg+xml</dc:format>
    <dc:creator>
     <cc:Agent>
      <dc:title>Matplotlib v3.10.8, https://matplotlib.org/</dc:title>
     </cc:Agent>
    </dc:creator>
   </cc:Work>
  </rdf:RDF>
 </metadata>
 <defs>
  <style type="text/css">*{stroke-linejoin: round; stroke-linecap: butt}</style>
 </defs>
 <g id="figure_1">
  <g id="patch_1">
   <path d="M 0 138.337079 
L 720 138.337079 
L 720 0 
L 0 0 
L 0 138.337079 
z
" style="fill: none"/>
  </g>
  <g id="axes_1">
   <g id="patch_2">
    <path d="M 17.02583 138.954852 
Q 2.471093 138.954852 2.471093 118.098827 
L 2.471093 88.80402 
Q 2.471093 69.764249 19.15097 69.764249 
Q 26.020609 69.764249 29.690182 72.531873 
Q 33.359755 75.287142 34.743567 80.575281 
Q 36.139734 85.86342 36.139734 93.474386 
L 22.85761 93.474386 
L 22.85761 87.444919 
Q 22.85761 85.245647 22.252192 83.762991 
Q 21.65913 82.26798 19.768744 82.26798 
Q 17.40885 82.26798 16.655166 83.861835 
Q 15.913839 85.443334 15.913839 87.33372 
L 15.913839 120.261034 
Q 15.913839 123.003947 16.6181 124.721356 
Q 17.334717 126.438766 19.422791 126.438766 
Q 21.584997 126.438766 22.301614 124.721356 
Q 23.018231 123.003947 23.018231 120.186901 
L 23.018231 110.500217 
L 19.385724 110.500217 
L 19.385724 98.762525 
L 35.991469 98.762525 
L 35.991469 138.337079 
L 30.542709 138.337079 
L 28.219882 132.616498 
Q 24.673863 138.954852 17.02583 138.954852 
z
M 71.861619 138.337079 
L 78.422371 70.382022 
L 101.477668 70.382022 
L 107.92722 138.337079 
L 95.065182 138.337079 
L 94.101455 127.365426 
L 85.909782 127.365426 
L 85.069611 138.337079 
L 71.861619 138.337079 
z
M 86.873508 116.517328 
L 93.051241 116.517328 
L 90.085929 81.959093 
L 89.468156 81.959093 
L 86.873508 116.517328 
z
M 145.502425 138.337079 
L 145.502425 70.382022 
L 166.346094 70.382022 
Q 171.5601 70.382022 174.216525 72.754272 
Q 176.885305 75.126521 177.787254 79.401512 
Q 178.701558 83.664147 178.701558 89.421794 
Q 178.701558 94.981753 177.293035 98.305373 
Q 175.884512 101.616637 171.992541 102.88925 
Q 175.192606 103.54409 176.477575 106.07696 
Q 177.774898 108.60983 177.774898 112.625356 
L 177.774898 138.337079 
L 164.381575 138.337079 
L 164.381575 111.735763 
Q 164.381575 108.758096 163.158384 108.053835 
Q 161.947548 107.337218 159.241701 107.337218 
L 159.241701 138.337079 
L 145.502425 138.337079 
z
M 159.32819 95.550104 
L 162.602388 95.550104 
Q 165.419434 95.550104 165.419434 89.421794 
Q 165.419434 85.443334 164.80166 84.207788 
Q 164.183887 82.972241 162.491189 82.972241 
L 159.32819 82.972241 
L 159.32819 95.550104 
z
M 216.276762 138.337079 
L 216.276762 70.382022 
L 234.958225 70.382022 
Q 242.297371 70.382022 246.004011 74.459326 
Q 249.71065 78.524274 249.71065 86.369994 
L 249.71065 118.185316 
Q 249.71065 127.834934 246.325253 133.086006 
Q 242.952211 138.337079 234.501073 138.337079 
L 216.276762 138.337079 
z
M 229.941906 126.327567 
L 232.3018 126.327567 
Q 236.045506 126.327567 236.045506 122.69506 
L 236.045506 87.642607 
Q 236.045506 84.244854 235.131202 83.256417 
Q 234.229253 82.26798 231.449273 82.26798 
L 229.941906 82.26798 
L 229.941906 126.327567 
z
M 287.285854 138.337079 
L 287.285854 70.382022 
L 314.467877 70.382022 
L 314.467877 83.503526 
L 301.111619 83.503526 
L 301.111619 96.748584 
L 313.924236 96.748584 
L 313.924236 109.53649 
L 301.111619 109.53649 
L 301.111619 125.09202 
L 315.35747 125.09202 
L 315.35747 138.337079 
L 287.285854 138.337079 
z
M 352.932674 138.337079 
L 352.932674 70.382022 
L 366.906705 70.382022 
L 373.15857 102.926317 
L 373.15857 70.382022 
L 386.292429 70.382022 
L 386.292429 138.337079 
L 373.010304 138.337079 
L 366.214799 104.359551 
L 366.214799 138.337079 
L 352.932674 138.337079 
z
M 494.641971 138.954852 
Q 487.265759 138.954852 482.768369 134.358619 
Q 478.27098 129.762386 478.27098 121.49658 
L 478.27098 90.150766 
Q 478.27098 80.266394 482.187663 75.015322 
Q 486.104345 69.764249 494.950858 69.764249 
Q 499.781844 69.764249 503.537906 71.543436 
Q 507.306322 73.310268 509.468529 76.843931 
Q 511.630735 80.377593 511.630735 85.752221 
L 511.630735 97.489912 
L 498.113857 97.489912 
L 498.113857 87.444919 
Q 498.113857 84.39312 497.335462 83.33055 
Q 496.569423 82.26798 494.950858 82.26798 
Q 493.060472 82.26798 492.405632 83.639436 
Q 491.750792 85.010893 491.750792 87.296654 
L 491.750792 121.311248 
Q 491.750792 124.128294 492.578608 125.289708 
Q 493.406425 126.438766 494.950858 126.438766 
Q 496.692978 126.438766 497.39724 125.017888 
Q 498.113857 123.584654 498.113857 121.311248 
L 498.113857 109.066983 
L 511.791356 109.066983 
L 511.791356 121.929021 
Q 511.791356 130.886733 507.269256 134.92697 
Q 502.747156 138.954852 494.641971 138.954852 
z
M 547.51324 138.337079 
L 554.073992 70.382022 
L 577.129289 70.382022 
L 583.578842 138.337079 
L 570.716803 138.337079 
L 569.753077 127.365426 
L 561.561404 127.365426 
L 560.721232 138.337079 
L 547.51324 138.337079 
z
M 562.52513 116.517328 
L 568.702863 116.517328 
L 565.737551 81.959093 
L 565.119778 81.959093 
L 562.52513 116.517328 
z
M 621.154046 138.337079 
L 621.154046 70.382022 
L 641.997715 70.382022 
Q 647.211721 70.382022 649.868146 72.754272 
Q 652.536927 75.126521 653.438876 79.401512 
Q 654.35318 83.664147 654.35318 89.421794 
Q 654.35318 94.981753 652.944657 98.305373 
Q 651.536134 101.616637 647.644163 102.88925 
Q 650.844228 103.54409 652.129196 106.07696 
Q 653.42652 108.60983 653.42652 112.625356 
L 653.42652 138.337079 
L 640.033196 138.337079 
L 640.033196 111.735763 
Q 640.033196 108.758096 638.810005 108.053835 
Q 637.59917 107.337218 634.893323 107.337218 
L 634.893323 138.337079 
L 621.154046 138.337079 
z
M 634.979811 95.550104 
L 638.254009 95.550104 
Q 641.071055 95.550104 641.071055 89.421794 
Q 641.071055 85.443334 640.453282 84.207788 
Q 639.835509 82.972241 638.14281 82.972241 
L 634.979811 82.972241 
L 634.979811 95.550104 
z
M 691.928384 138.337079 
L 691.928384 70.382022 
L 719.110407 70.382022 
L 719.110407 83.503526 
L 705.754149 83.503526 
L 705.754149 96.748584 
L 718.566766 96.748584 
L 718.566766 109.53649 
L 705.754149 109.53649 
L 705.754149 125.09202 
L 720 125.09202 
L 720 138.337079 
L 691.928384 138.337079 
z
M 27.076713 41.434907 
Q 24.527151 41.434907 21.688276 40.621217 
Q 18.858443 39.816568 16.137102 38.198229 
Q 13.41576 36.570849 11.182633 34.057451 
Q 8.958547 31.535011 7.656643 28.153677 
Q 6.354739 24.772343 6.354739 20.432662 
Q 6.354739 16.264761 7.656643 13.000959 
Q 8.958547 9.728117 11.15551 7.296088 
Q 13.361514 4.864059 16.073815 3.272842 
Q 18.795156 1.681626 21.688276 0.9041 
Q 24.581397 0.117533 27.185205 0.117533 
Q 30.141612 0.117533 32.338575 0.81369 
Q 34.535539 1.509847 35.918812 2.233127 
Q 37.311126 2.956407 37.663725 3.245719 
Q 38.70344 3.878589 39.625622 4.692279 
Q 40.556845 5.496929 40.611091 6.834997 
Q 40.611091 7.522113 40.348902 8.191147 
Q 40.095754 8.860181 39.571376 9.610584 
Q 38.649194 10.939611 37.808381 11.545358 
Q 36.967568 12.151105 36.099632 12.151105 
Q 35.403475 12.151105 34.797728 11.807547 
Q 34.191981 11.463989 33.260758 10.885365 
Q 32.862953 10.596053 32.103509 10.162085 
Q 31.353106 9.728117 30.078325 9.348395 
Q 28.812585 8.968673 26.841647 8.968673 
Q 24.816463 8.968673 22.764155 9.691953 
Q 20.711848 10.415233 18.975976 11.861793 
Q 17.240104 13.308353 16.191348 15.541481 
Q 15.151633 17.765567 15.151633 20.721974 
Q 15.151633 23.786873 16.218471 25.983837 
Q 17.29435 28.1808 19.030222 29.62736 
Q 20.766094 31.07392 22.818401 31.7972 
Q 24.870709 32.52048 26.841647 32.52048 
Q 28.577519 32.52048 29.816136 32.176922 
Q 31.063794 31.824323 31.958853 31.336109 
Q 32.862953 30.847895 33.495824 30.44105 
Q 34.128694 30.034205 34.797728 29.690647 
Q 35.466762 29.338048 36.153878 29.338048 
Q 36.967568 29.338048 37.808381 29.979959 
Q 38.649194 30.612829 39.51713 32.005143 
Q 40.032467 32.755546 40.321779 33.478826 
Q 40.611091 34.202107 40.556845 34.898264 
Q 40.556845 36.109758 39.625622 36.896325 
Q 38.70344 37.673851 37.663725 38.306721 
Q 37.202634 38.541787 35.864566 39.328354 
Q 34.535539 40.10588 32.338575 40.765873 
Q 30.141612 41.434907 27.076713 41.434907 
z
M 75.257473 40.910529 
Q 73.114755 40.910529 72.102163 40.160126 
Q 71.089571 39.409723 71.089571 38.306721 
L 71.668195 37.321252 
Q 71.315596 37.899876 70.330127 38.740689 
Q 69.353699 39.581502 67.789606 40.250536 
Q 66.225513 40.910529 63.911016 40.910529 
Q 61.252962 40.910529 58.848056 39.753281 
Q 56.452191 38.596033 54.598785 36.543726 
Q 52.74538 34.491419 51.669501 31.88761 
Q 50.602663 29.283802 50.602663 26.390682 
Q 50.602663 23.551807 51.669501 20.984163 
Q 52.74538 18.407478 54.625908 16.409417 
Q 56.506437 14.411355 58.875179 13.254107 
Q 61.252962 12.096859 63.911016 12.096859 
Q 66.053734 12.096859 67.55454 12.702606 
Q 69.064387 13.308353 70.076979 14.122043 
Q 71.089571 14.935734 71.604908 15.686137 
L 71.143817 14.872447 
Q 71.089571 13.489173 72.102163 12.765893 
Q 73.114755 12.042613 75.311719 12.042613 
Q 77.391149 12.042613 78.286208 12.675483 
Q 79.190308 13.308353 79.38921 14.357109 
Q 79.597153 15.396825 79.597153 16.554073 
L 79.597153 36.516603 
Q 79.597153 37.610564 79.38921 38.65932 
Q 79.190308 39.699035 78.286208 40.304782 
Q 77.391149 40.910529 75.257473 40.910529 
z
M 65.185798 32.294455 
Q 66.686604 32.294455 67.934262 31.516929 
Q 69.18192 30.730362 69.9052 29.401335 
Q 70.62848 28.063267 70.62848 26.444928 
Q 70.62848 24.772343 69.869036 23.470438 
Q 69.118633 22.168534 67.843852 21.391008 
Q 66.578112 20.604441 65.068265 20.604441 
Q 63.395679 20.604441 62.093775 21.418131 
Q 60.791871 22.22278 60.005304 23.551807 
Q 59.227778 24.880835 59.227778 26.562461 
Q 59.227778 28.126554 60.005304 29.428458 
Q 60.791871 30.730362 62.148021 31.516929 
Q 63.504171 32.294455 65.185798 32.294455 
z
M 94.859628 40.973816 
Q 92.771157 40.973816 91.839934 40.340946 
Q 90.917752 39.699035 90.745973 38.713566 
Q 90.574194 37.728097 90.574194 36.570849 
L 90.574194 16.319007 
Q 90.574194 15.161759 90.773096 14.212453 
Q 90.981039 13.254107 91.903221 12.64836 
Q 92.834444 12.042613 94.96812 12.042613 
Q 97.110838 12.042613 98.096307 12.883426 
Q 99.081776 13.715198 99.081776 15.62285 
L 98.331373 16.264761 
Q 98.439865 15.975449 99.018489 15.279292 
Q 99.597113 14.583135 100.519295 13.832731 
Q 101.450518 13.082328 102.689135 12.530827 
Q 103.936793 11.979326 105.383354 11.979326 
Q 107.300046 11.979326 108.827975 12.530827 
Q 110.364945 13.082328 111.603562 14.158207 
Q 112.85122 15.225046 113.773402 16.843385 
Q 114.587092 15.686137 115.744341 14.592176 
Q 116.901589 13.489173 118.492805 12.73877 
Q 120.084021 11.979326 122.054959 11.979326 
Q 125.409171 11.979326 127.75079 13.688075 
Q 130.092409 15.396825 131.303903 18.579257 
Q 132.524438 21.761689 132.524438 26.273149 
L 132.524438 36.634136 
Q 132.524438 37.728097 132.316495 38.740689 
Q 132.117593 39.753281 131.18637 40.368069 
Q 130.264188 40.973816 128.130512 40.973816 
Q 125.987795 40.973816 125.083695 40.340946 
Q 124.188635 39.699035 123.989733 38.686443 
Q 123.790831 37.673851 123.790831 36.570849 
L 123.790831 26.218903 
Q 123.790831 24.419744 123.383986 23.208249 
Q 122.977141 21.987714 122.136328 21.327721 
Q 121.295515 20.658687 120.029775 20.658687 
Q 118.691707 20.658687 117.769525 21.273475 
Q 116.847343 21.879222 116.377211 23.12688 
Q 115.91612 24.365498 115.91612 26.273149 
L 115.91612 36.634136 
Q 115.91612 37.791384 115.626808 38.803976 
Q 115.337496 39.816568 114.379149 40.422315 
Q 113.429844 41.028062 111.350414 40.973816 
Q 109.261943 40.910529 108.394007 40.277659 
Q 107.526071 39.635748 107.354292 38.623156 
Q 107.182513 37.610564 107.182513 36.570849 
L 107.182513 26.218903 
Q 107.182513 24.419744 106.775668 23.181126 
Q 106.368823 21.933468 105.555133 21.300598 
Q 104.750483 20.658687 103.421456 20.658687 
Q 101.974896 20.658687 101.043673 21.418131 
Q 100.121491 22.168534 99.687523 23.416192 
Q 99.253555 24.65481 99.253555 26.218903 
L 99.253555 36.634136 
Q 99.253555 37.791384 99.045612 38.776853 
Q 98.84671 39.753281 97.915487 40.368069 
Q 96.993305 40.973816 94.859628 40.973816 
z
M 146.629666 18.579257 
Q 145.815975 18.579257 145.146941 17.657075 
Q 144.486948 16.725852 144.016816 15.225046 
Q 143.555725 13.715198 143.212167 11.952203 
Q 142.868609 10.189208 142.723953 8.516623 
Q 142.579297 6.834997 142.579297 5.560216 
Q 142.579297 4.402967 142.751076 3.272842 
Q 142.922855 2.142717 143.763668 1.392314 
Q 144.604481 0.641911 146.683912 0.641911 
Q 148.709096 0.641911 149.549909 1.392314 
Q 150.390722 2.142717 150.562501 3.272842 
Q 150.73428 4.402967 150.73428 5.560216 
Q 150.73428 6.834997 150.589624 8.516623 
Q 150.444968 10.189208 150.128533 11.952203 
Q 149.812098 13.715198 149.314843 15.225046 
Q 148.826629 16.725852 148.157595 17.657075 
Q 147.497602 18.579257 146.629666 18.579257 
z
M 172.1808 41.434907 
Q 170.625748 41.434907 168.799466 41.082308 
Q 166.973183 40.73875 165.237311 40.078757 
Q 163.501439 39.409723 162.344191 38.514664 
Q 161.186943 37.610564 161.015164 36.453316 
Q 160.897631 35.874692 161.042287 35.214699 
Q 161.186943 34.545665 161.593788 33.822385 
Q 162.000633 33.099104 162.579257 32.294455 
Q 163.040348 31.652544 163.618972 31.480765 
Q 164.197596 31.308986 164.947999 31.535011 
Q 165.879222 31.715831 166.828527 32.149799 
Q 167.786873 32.583767 168.736179 33.071981 
Q 169.694525 33.560195 170.73424 33.939918 
Q 171.782996 34.31964 172.876957 34.31964 
Q 174.495296 34.31964 175.390355 33.831426 
Q 176.294455 33.33417 176.294455 32.466234 
Q 176.294455 31.824323 175.914733 31.426519 
Q 175.544052 31.019674 174.875018 30.703239 
Q 174.205984 30.377763 173.338048 30.151738 
Q 172.470112 29.916672 171.45752 29.663524 
Q 170.444928 29.401335 169.405213 29.112023 
Q 167.958652 28.705178 166.629625 28.072308 
Q 165.300598 27.430397 164.197596 26.417805 
Q 163.103635 25.405213 162.461724 23.931529 
Q 161.828854 22.457846 161.828854 20.315129 
Q 161.828854 17.476255 163.157881 15.568604 
Q 164.486908 13.660952 167.027429 12.64836 
Q 169.576992 11.635768 173.229556 11.635768 
Q 174.269271 11.635768 175.308986 11.753301 
Q 176.348701 11.861793 177.361293 12.151105 
Q 178.373886 12.440417 179.359355 12.847262 
Q 180.344824 13.254107 181.330293 13.832731 
Q 183.066165 14.646422 183.120411 16.038736 
Q 183.174657 17.422009 182.134942 18.868569 
Q 181.502072 19.854038 180.805915 20.288006 
Q 180.109758 20.721974 179.359355 20.541154 
Q 178.437173 20.315129 177.361293 19.799792 
Q 176.294455 19.275414 175.101043 18.814323 
Q 173.916672 18.344191 172.759424 18.344191 
Q 171.782996 18.344191 171.086839 18.60638 
Q 170.390682 18.868569 170.038083 19.302537 
Q 169.694525 19.736505 169.694525 20.315129 
Q 169.694525 21.065532 170.128493 21.4995 
Q 170.562461 21.933468 171.312864 22.22278 
Q 172.072308 22.512092 173.048736 22.747158 
Q 174.034205 22.973183 175.191453 23.208249 
Q 176.755546 23.497561 178.401009 23.994816 
Q 180.055512 24.483031 181.411662 25.405213 
Q 182.776853 26.327395 183.608625 27.891488 
Q 184.449438 29.455581 184.449438 32.005143 
Q 184.449438 36.570849 181.267006 39.002878 
Q 178.084574 41.434907 172.1808 41.434907 
z
M 2.426966 55.820225 
L 716.764045 55.820225 
L 716.764045 53.393258 
L 2.426966 53.393258 
z
" clip-path="url(#pc2d92c5aea)" style="fill: #1f3d2e"/>
   </g>
  </g>
 </g>
 <defs>
  <clipPath id="pc2d92c5aea">
   <rect x="0" y="0" width="720" height="138.337079"/>
  </clipPath>
 </defs>
</svg>
